<?xml version="1.0" encoding="UTF-8" standalone="no"?><!DOCTYPE svg PUBLIC "-//W3C//DTD SVG 1.1//EN" "http://www.w3.org/Graphics/SVG/1.1/DTD/svg11.dtd"><svg width="100%" height="100%" viewBox="0 0 3300 2550" version="1.1" xmlns="http://www.w3.org/2000/svg" xmlns:xlink="http://www.w3.org/1999/xlink" xml:space="preserve" xmlns:serif="http://www.serif.com/" style="fill-rule:evenodd;clip-rule:evenodd;stroke-linejoin:round;stroke-miterlimit:2;"><g id="Capa-1" serif:id="Capa 1"><path d="M987.135,1208.816l-36.108,0l0,307.125l197,0l0,-36.108l-160.892,0l0,-271.017Z" style="fill:#1c1d21;fill-rule:nonzero;"/><path d="M1244.818,1403.118l59.129,-140.2l28.717,68.1c2.312,5.463 3.483,11.25 3.483,17.208c0,21.529 -15.362,39.992 -36.525,43.9l-40.425,7.675c-4.883,0.758 -9.688,1.867 -14.379,3.317m42.783,-194.308l-129.529,307.125l39.167,0l16.967,-40.221l0.15,-0.358c8.067,-20.6 26.858,-35.779 49.142,-39.625l41.883,-7.942c22.075,-3.992 41.171,-16.746 53.312,-35.079l51.971,123.225l39.163,0l-129.529,-307.125l-32.696,0Z" style="fill:#1c1d21;fill-rule:nonzero;"/><path d="M1550.305,1461.836l-106.713,-253.025l-39.171,0l129.538,307.129l32.692,0l129.529,-307.129l-39.171,0l-106.704,253.025Z" style="fill:#1c1d21;fill-rule:nonzero;"/><rect x="1717.304" y="1208.812" width="36.104" height="307.125" style="fill:#1c1d21;"/><path d="M2029.005,1406.34c-9.583,-10.892 -20.763,-20.342 -33.029,-27.842l-103.396,-63.263c-32.267,-19.942 -51.533,-54.508 -51.533,-92.467l0,-13.954l-36.104,0l0,307.129l36.104,0l0,-197.525c9.583,10.892 20.762,20.342 33.029,27.842l103.396,63.267c32.267,19.933 51.529,54.5 51.529,92.467l0,13.954l36.108,0l0,-307.133l-36.104,0l0,197.525Z" style="fill:#1c1d21;fill-rule:nonzero;"/><rect x="2116.312" y="1208.812" width="36.104" height="307.125" style="fill:#1c1d21;"/><path d="M2378.779,1403.111c-4.65,-1.442 -9.379,-2.533 -14.146,-3.271l-40.629,-7.708l-0.025,-0.004c-21.167,-3.913 -36.529,-22.375 -36.529,-43.9c0,-5.954 1.175,-11.746 3.488,-17.221l28.717,-68.088l59.125,140.192Zm-42.787,-194.3l-32.683,0l-118.483,280.933l-0.004,0l-11.05,26.188l39.167,0l51.971,-123.217c12.138,18.329 31.225,31.079 53.254,35.062l42.05,7.975c22.171,3.825 40.963,19 49.175,39.938l16.971,40.242l39.162,0l-129.529,-307.121Z" style="fill:#1c1d21;fill-rule:nonzero;"/><path d="M1586.96,1028.275c-7.4,7.821 -18.058,13.962 -31.625,18.317c-19.204,6.171 -35.987,5.338 -50.296,-2.308c-14.312,-7.65 -24.179,-20.221 -29.779,-37.662c-5.546,-17.262 -4.371,-33.579 3.346,-48.879c7.838,-15.538 20.771,-26.104 38.742,-31.875c12.154,-3.904 22.587,-5.312 30.883,-4.283l5.6,17.442c-9.525,-1.217 -18.954,-0.325 -28.471,2.729c-12.329,3.958 -21.421,11.346 -27.333,21.992c-5.737,10.587 -6.513,22.692 -2.154,36.258c8.542,26.6 29.775,37.658 56.379,29.117c10.746,-3.45 20.412,-9.663 29.05,-18.458l5.658,17.612Z" style="fill:#1c1d21;fill-rule:nonzero;"/><path d="M1656.117,937.674l-15.608,49.862l41.263,-4.013l-24.917,-45.921l-0.737,0.071Zm45.017,82.454l-12.017,-22.258l-53.233,5.179l-7.321,24.138l-20.446,1.987l43.458,-128.621l3.871,-0.375l66.871,117.892l-21.183,2.058Z" style="fill:#1c1d21;fill-rule:nonzero;"/><path d="M1745.913,992.198c10.775,9.442 24.713,15.104 35.763,16.2c14.729,1.462 25.4,-3.05 26.554,-14.654c1.025,-10.304 -7.633,-18.604 -18.9,-24.933c-16.392,-9.062 -37.125,-19.304 -35.038,-40.292c1.004,-10.125 5.475,-17.675 13.588,-22.633c8.133,-5.142 17.633,-7.171 28.679,-6.075c12.521,1.246 23.679,4.958 33.475,11.138l-1.867,18.779c-8.75,-7.379 -18.746,-11.529 -29.979,-12.65c-11.967,-1.188 -21.663,2.867 -22.692,13.179c-2.067,20.8 58.042,23.987 53.996,64.675c-2.142,21.538 -19.679,33.367 -46.742,30.679c-15.833,-1.575 -28.758,-6.208 -38.796,-13.713l1.958,-19.7Z" style="fill:#1c1d21;fill-rule:nonzero;"/><path d="M1926.855,964.599l-33.604,40l39.617,12.188l-5.304,-51.967l-0.708,-0.221Zm9.779,93.421l-2.513,-25.167l-51.112,-15.725l-16.054,19.454l-19.629,-6.042l89.638,-101.938l3.713,1.142l16.3,134.533l-20.342,-6.258Z" style="fill:#1c1d21;fill-rule:nonzero;"/><path d="M1681.784,1162.843c1.733,2.467 -0.3,5.779 -3.292,5.417c-15.2,-1.85 -30.429,-3.525 -45.529,-5.983c-9.254,-1.504 -14.112,-8.338 -15.279,-17.496c-1.171,-9.204 2.329,-16.583 10.442,-20.9c8.417,-4.471 17.517,-4.225 24.329,2.767c8.804,9.033 22.671,26.725 29.329,36.196" style="fill:#1c1d21;fill-rule:nonzero;"/><path d="M1725.076,1162.843c-1.733,2.467 0.3,5.779 3.292,5.417c15.2,-1.85 30.429,-3.525 45.529,-5.983c9.254,-1.504 14.112,-8.338 15.279,-17.496c1.171,-9.204 -2.329,-16.583 -10.442,-20.9c-8.417,-4.471 -17.517,-4.225 -24.329,2.767c-8.804,9.033 -22.671,26.725 -29.329,36.196" style="fill:#1c1d21;fill-rule:nonzero;"/><path d="M1707.779,1164.523c-1.196,2.767 -5.083,2.771 -6.338,0.029c-6.375,-13.925 -12.912,-27.779 -18.717,-41.933c-3.558,-8.675 -0.275,-16.392 6.921,-22.175c7.233,-5.812 15.354,-6.692 23.275,-2.029c8.213,4.833 12.763,12.717 10.367,22.175c-3.092,12.233 -10.917,33.304 -15.508,43.933" style="fill:#1c1d21;fill-rule:nonzero;"/></g></svg>